<svg width="484" height="61" viewBox="0 0 484 61" fill="none" xmlns="http://www.w3.org/2000/svg">
<path d="M70.167 0.939998V61H56.335V33.427L56.79 14.954H56.608L41.775 61H29.126L14.293 14.954H14.111L14.566 33.427V61H0.643001V0.939998H22.938L32.402 31.516L35.769 44.256H35.951L39.409 31.607L48.782 0.939998H70.167ZM111.04 0.939998C115.954 0.939998 120.14 1.72866 123.598 3.306C127.056 4.88333 129.695 7.15833 131.515 10.131C133.335 13.1037 134.245 16.7133 134.245 20.96C134.245 25.2067 133.335 28.8163 131.515 31.789C129.695 34.7617 127.056 37.0367 123.598 38.614C120.14 40.1913 115.954 40.98 111.04 40.98H99.1192V61H83.4672V0.939998H111.04ZM108.583 29.241C111.859 29.241 114.316 28.5737 115.954 27.239C117.653 25.8437 118.502 23.7507 118.502 20.96C118.502 18.1693 117.653 16.1067 115.954 14.772C114.316 13.3767 111.859 12.679 108.583 12.679H99.1192V29.241H108.583ZM172.917 0.939998C180.076 0.939998 185.627 2.63866 189.57 6.036C193.574 9.37266 195.576 13.8317 195.576 19.413C195.576 25.5403 193.605 30.2117 189.661 33.427C185.718 36.6423 180.167 38.25 173.008 38.25L171.552 39.069H159.631V61H144.252V0.939998H172.917ZM170.733 27.967C173.767 27.967 176.042 27.3603 177.558 26.147C179.075 24.9337 179.833 22.9923 179.833 20.323C179.833 17.7143 179.075 15.8033 177.558 14.59C176.042 13.3767 173.767 12.77 170.733 12.77H159.631V27.967H170.733ZM179.924 31.243L199.125 61H181.835L166.456 34.701L179.924 31.243ZM206.993 61V0.939998H253.767V13.043H222.645V25.237H247.397V36.612H222.645V48.897H254.95V61H206.993ZM289.881 0.939998C299.284 0.939998 306.473 3.54867 311.448 8.766C316.483 13.9833 319.001 21.3847 319.001 30.97C319.001 40.5553 316.483 47.9567 311.448 53.174C306.473 58.3913 299.284 61 289.881 61H264.401V0.939998H289.881ZM288.334 49.17C293.43 49.17 297.13 47.6533 299.436 44.62C301.802 41.526 302.985 36.976 302.985 30.97C302.985 24.964 301.802 20.4443 299.436 17.411C297.13 14.317 293.43 12.77 288.334 12.77H280.053V49.17H288.334ZM337.089 56.814H373.125V61H332.539V0.939998H337.089V56.814ZM430.297 61H425.474L417.921 42.163H389.256L381.703 61H376.88L400.904 0.939998H406.273L430.297 61ZM390.894 37.977H416.283L403.543 5.399L390.894 37.977ZM441.49 61V0.939998H462.693C469.306 0.939998 474.22 2.33533 477.435 5.126C480.651 7.856 482.258 11.769 482.258 16.865C482.258 20.323 481.318 23.2957 479.437 25.783C477.557 28.2097 474.827 29.787 471.247 30.515V30.606C475.13 31.2127 478.194 32.8203 480.438 35.429C482.744 37.977 483.896 41.1317 483.896 44.893C483.896 49.9283 482.076 53.8717 478.436 56.723C474.796 59.5743 469.549 61 462.693 61H441.49ZM446.04 56.814H463.603C468.76 56.814 472.612 55.7827 475.16 53.72C477.769 51.6573 479.073 48.6847 479.073 44.802C479.073 40.8587 477.769 37.886 475.16 35.884C472.612 33.8213 468.76 32.79 463.603 32.79H446.04V56.814ZM446.04 28.604H462.784C472.552 28.604 477.435 24.691 477.435 16.865C477.435 9.039 472.552 5.126 462.784 5.126H446.04V28.604Z" fill="white"/>
</svg>
